<svg class="svg-icon" style="width: 1em;height: 1em;vertical-align: middle;fill: currentColor;overflow: hidden;" viewBox="0 0 1024 1024" version="1.1" xmlns="http://www.w3.org/2000/svg"><path d="M276.918857 906.496H747.52c83.986286 0 128.987429-43.702857 128.987429-127.707429V351.926857c41.581714-6.857143 63.872-38.144 63.872-84.004571V202.788571c0-52.297143-28.708571-85.284571-81.444572-85.284571H165.065143c-50.139429 0-81.426286 32.987429-81.426286 85.284571v65.133715c0 45.860571 22.710857 77.165714 63.853714 84.004571V778.788571c0 84.425143 45.44 127.707429 129.426286 127.707429zM182.637714 288.493714c-21.430857 0-29.988571-8.996571-29.988571-30.427428V212.662857c0-21.430857 8.557714-30.427429 29.988571-30.427428h659.145143c21.851429 0 29.568 8.996571 29.568 30.427428v45.421714c0 21.430857-7.716571 30.427429-29.568 30.427429z m93.860572 553.289143c-38.582857 0-59.995429-20.992-59.995429-59.574857v-428.982857h590.994286v428.982857c0 38.582857-21.430857 59.574857-59.574857 59.574857z m94.281143-315.849143H654.08c17.572571 0 30.445714-12.434286 30.445714-31.286857v-13.714286c0-18.852571-12.873143-30.866286-30.445714-30.866285H370.779429c-17.993143 0-30.427429 12.013714-30.427429 30.866285v13.714286c0 18.852571 12.434286 31.268571 30.427429 31.268572z"  /></svg>