<svg width="41" height="40" viewBox="0 0 41 40" fill="none" xmlns="http://www.w3.org/2000/svg">
<path fill-rule="evenodd" clip-rule="evenodd" d="M33.8751 1.11222C33.7899 0.484116 33.2515 0 32.6 0L32.4254 0.0117473L32.2579 0.0459672C31.7133 0.195784 31.3132 0.694589 31.3132 1.28684V6.86315H25.7369L25.5623 6.8749C24.9342 6.96011 24.45 7.49852 24.45 8.14999L24.4618 8.32461C24.547 8.95272 25.0854 9.43683 25.7369 9.43683H31.3132V15.0131L31.3249 15.1878C31.4101 15.8159 31.9486 16.3 32.6 16.3L32.7746 16.2882C33.4028 16.203 33.8869 15.6646 33.8869 15.0131V9.43683H39.4632L39.6378 9.42509C40.2659 9.33988 40.75 8.80147 40.75 8.14999L40.7383 7.97538C40.6531 7.34727 40.1147 6.86315 39.4632 6.86315H33.8869V1.28684L33.8751 1.11222ZM10.9355 6.26957L14.0344 11.5071C14.7932 12.7896 14.7995 14.3822 14.0508 15.6707L13.1026 17.3027C12.6335 18.1099 12.7236 19.1163 13.3081 19.8251L13.4517 19.9832L19.9087 26.4402C20.5688 27.1004 21.5648 27.2711 22.3996 26.8877L22.5892 26.7894L24.2212 25.8411C25.4238 25.1423 26.8913 25.1012 28.1243 25.7158L28.3848 25.8575L33.6223 28.9565C35.9549 30.3365 36.727 33.3462 35.3469 35.6787C35.1001 36.0958 34.7929 36.4741 34.4353 36.8011C31.8902 39.1288 29.4669 40.1708 27.169 39.8281C22.46 39.126 17.0812 35.8153 10.9847 29.926L10.9748 29.9333L10.4694 29.4218L9.95859 28.9172C4.07664 22.8107 0.765923 17.432 0.0637759 12.7229C-0.278846 10.4251 0.763117 8.00175 3.0908 5.4566C3.41786 5.09899 3.79609 4.79179 4.21317 4.54502C6.5457 3.16492 9.55538 3.93703 10.9355 6.26957ZM5.26159 6.31708C5.0195 6.46032 4.79996 6.63862 4.61013 6.84619C2.64082 8.99949 1.86554 10.8457 2.10018 12.4193C2.7243 16.6051 5.80404 21.6362 11.4056 27.4525L12.055 28.0972L13.0162 29.0194C18.5986 34.294 23.4284 37.1888 27.4726 37.7918C29.0463 38.0264 30.8925 37.2511 33.0458 35.2818C33.2533 35.092 33.4316 34.8725 33.5749 34.6304C34.3759 33.2765 33.9278 31.5296 32.5739 30.7285L27.4007 27.6661L27.2059 27.5586C26.588 27.2506 25.8546 27.2734 25.2556 27.6214L23.5372 28.6171L23.2588 28.7589C21.6382 29.503 19.7195 29.1629 18.4528 27.8962L11.9277 21.3678L11.7194 21.135C10.585 19.7591 10.4223 17.8172 11.3223 16.2683L12.2706 14.6364C12.6447 13.9924 12.6416 13.1966 12.2623 12.5556L9.16342 7.31807L9.02138 7.10086C8.16949 5.91824 6.54025 5.56053 5.26159 6.31708Z" fill="#4B4949"/>
</svg>
