<svg class="svg-icon" style="width: 1em; height: 1em;vertical-align: middle;fill: currentColor;overflow: hidden;" viewBox="0 0 1024 1024" version="1.1" xmlns="http://www.w3.org/2000/svg"><path d="M749.024 972.608c-77.792 0-266.912-99.488-425.696-313.056-148.512-199.744-220.736-344.032-220.736-441.12 0-76.448 52.8-112.928 81.152-132.544l7.008-4.896c31.328-22.4 80.064-29.664 98.752-29.664 32.768 0 46.56 19.168 54.912 35.872 7.104 14.144 65.952 140.48 71.904 156.192 9.152 24.16 6.144 59.36-22.144 79.616l-4.96 3.456c-14.048 9.728-40.16 27.808-43.776 49.824-1.76 10.688 1.824 21.888 10.944 34.176 45.536 61.376 190.976 241.6 217.184 266.048 20.544 19.2 46.56 21.92 64.288 6.976 18.336-15.456 26.496-24.576 26.56-24.704l1.888-1.824c1.536-1.312 15.872-12.672 39.296-12.672 16.896 0 34.08 5.824 51.072 17.312 44.096 29.792 143.584 96.352 143.584 96.352l1.6 1.216c12.736 10.912 31.136 42.336 9.664 83.232-22.24 42.464-91.2 130.112-162.528 130.112zM289.472 85.504c-16.16 0-55.872 6.816-78.912 23.296l-7.424 5.184c-26.464 18.304-66.432 45.92-66.432 104.48 0 89.504 70.016 227.136 213.984 420.768 157.248 211.488 337.024 299.296 398.304 299.296 52.128 0 111.904-72.832 132.32-111.808 12.544-23.936 2.272-37.44-1.28-41.088-11.52-7.712-101.248-67.744-142.496-95.616-11.232-7.616-22.016-11.456-31.968-11.456-9.056 0-15.008 3.2-17.024 4.48-3.328 3.552-12.48 12.96-28.768 26.656-30.432 25.632-76.736 22.528-109.568-8.128-29.536-27.584-178.72-213.312-221.312-270.688-14.72-19.84-20.512-40.064-17.216-60.064 5.984-36.256 39.84-59.712 58.016-72.32l4.544-3.168c16.256-11.616 12.8-32.64 10.112-39.744-5.024-13.248-63.136-138.304-70.496-152.992-6.016-12.032-10.752-17.056-24.448-17.056z"  /></svg>