<svg height="56" viewBox="0 0 56 56" width="56" xmlns="http://www.w3.org/2000/svg"><path d="m22.60125 0c4.863158 0 9.3676274 1.2889835 13.0546965 3.48191456l.4533548.27714353c11.0468243.29831003 19.8906987 7.92710281 19.8906987 17.29247561 0 5.148034-2.6743633 9.7752285-6.9172278 12.9451068l-.4782729.3395673-.5381571.3692575c-1.4898181 1.0998425-.5682592 3.4145985.8119881 5.2650463l.2555738.3309548c.0865863.1083637.1744227.2146481.2630745.3184794l.267967.3037608.2372862.256328.1781198.2046621c.5349782.6452798.4825194.9221264-.1542426.8556802l-.2085546-.0302075c-.1130387-.020228-.2392172-.0481235-.3785248-.0836017-1.6132847-.4092795-2.891775-.9154892-3.9473297-1.4316238l-.4717567-.2386039c-.1522472-.0795583-.2996251-.1590347-.4425411-.2381124l-.4157694-.2357201-.3914416-.2314268-1.5259572-.9373243-.3013232-.1738356-.2928806-.1571865c-.7719306-.3952757-1.4798758-.5926855-2.3323807-.4300198l-.1684691.0364837c-1.1729362.1741881-2.3785494.2655937-3.6116803.2655937-2.4821331 0-4.8615622-.3701044-7.0646034-1.0483101l.0184945-.0043746c-1.8479757.4098184-3.7886814.6281438-5.7901411.6281438-1.1294954 0-2.2379867-.0695761-3.322192-.2032584l-.6551441-.0897487c-.9045765-.2156421-1.6546458-.0693291-2.4433096.2891585l-.2979352.144086-.3038164.1622221-.3119604.178603-.8303817.5066552-.5441588.3364611-.5879407.3535716-.4200552.2422948-.4451712.2455115c-.0764139.0410891-.1539685.0822391-.2327111.1234134l-.487088.2470453c-1.1715605.5757548-2.59443512 1.1419423-4.39798703 1.5982213-.09855993.0250311-.1911408.0466186-.27773952.0647378l-.24184661.0439274c-.8209445.1227335-.91767366-.1772077-.28606088-.9328363l.19031919-.2174033.10870896-.1172217c.0900503-.0952918.17995218-.1933137.26934667-.2937578l.26630234-.3082913.26110418-.3209778.2537522-.3318173.24424637-.3408096.23258674-.347955c.03767316-.0584853.07477076-.1171914.11124793-.1760798l.21105885-.3552098c.98066262-1.7244437 1.36406771-3.5374627.05584653-4.5005627l-.9534506-.6590022-.1637574-.1179394c-4.66353995-3.4744979-7.60306352-8.5463575-7.60306352-14.1891086 0-10.47264341 10.1172541-18.9641803 22.60125-18.9641803zm22.60125 18.9641803c0 6.7163099-4.1604072 12.6173261-10.4364909 15.9872289l-.3129412.1650233c.3252319.0141269.6536757.0212916.9844321.0212916 1.0563319 0 2.1000771-.0735549 3.1275505-.2186207 1.2758702-.2707351 2.5058173-.1809532 3.7125069.2300817.2224912.0757873.522788.2110388.86582.3816945l.4299067.2202412.6923243.3738792c.0933032-1.4854448.7265306-2.8538512 2.0400796-3.9061718l.2252481-.172426.1434558-.1049495.1151941-.0712434.8107115-.562998c3.6775615-2.7228735 5.7747025-6.5302936 5.7747025-10.5517444 0-6.5667171-5.6175409-12.28186615-13.3926785-13.91417841l-.0594537-.0592016c3.2952354 3.29527961 5.2796322 7.54443581 5.2796322 12.18209341zm-22.60125-15.74718306c-10.9052512 0-19.4960606 7.20897366-19.4960606 15.72844106 0 4.3984074 2.27935821 8.5627216 6.27645712 11.5408277l.45797787.323803.42862811.2975213.1197501.0723686.1559204.1147871c1.5942176 1.1736478 2.3551144 2.7459657 2.4621584 4.4609111l.4613532-.2532124.4437466-.2357762.4151428-.2107478.3755419-.1781275c.1760379-.0796433.3331016-.144207.4650051-.1894204 1.3115369-.4495639 2.6483521-.5477616 4.0350806-.2516488 1.116749.1586638 2.2511836.2391135 3.3992984.2391135 10.9043226 0 19.4960606-7.2098327 19.4960606-15.7303992 0-8.5188411-8.5920522-15.72844106-19.4960606-15.72844106z" transform="translate(0 7)"/></svg>