<svg class="svg-icon" style="width: 1em; height: 1em;vertical-align: middle;fill: currentColor;overflow: hidden;" viewBox="0 0 1024 1024" version="1.1" xmlns="http://www.w3.org/2000/svg"><path d="M317.97248 690.76992c1.39264 0.86016 1.72032 1.4336 1.96608 2.7648 1.92512 10.46528-10.17856 33.23904-19.6608 45.64992-4.28032 5.61152-5.38624 13.04576-2.90816 19.64032s8.15104 11.48928 15.07328 12.9024c5.69344 1.14688 11.14112 1.65888 16.34304 1.65888 31.90784 0 54.25152-19.70176 68.42368-32.17408 3.03104-2.68288 6.94272-6.144 9.5232-7.9872 30.06464 6.90176 76.36992 12.36992 105.73824 12.36992 16.34304 0 32.70656-1.16736 48.82432-3.19488 24.53504 7.94624 51.2 12.45184 79.1552 12.45184 19.39456 0 48.31232-3.29728 68.95616-7.74144 1.08544 0.94208 2.21184 2.00704 3.46112 3.09248 9.80992 8.66304 26.27584 23.18336 50.176 23.18336 3.8912 0 7.96672-0.38912 12.24704-1.24928 6.90176-1.41312 12.57472-6.28736 15.07328-12.88192 2.47808-6.59456 1.37216-14.04928-2.90816-19.64032-5.79584-7.63904-11.10016-18.37056-11.776-23.53152 50.0736-31.90784 79.91296-82.75968 79.91296-136.45824 0-33.0752-11.53024-63.93856-31.17056-90.35776-2.6624-137.29792-141.47584-248.36096-311.97184-248.36096-172.15488 0-312.2176 113.19296-312.2176 252.33408C200.25344 571.16672 244.26496 644.99712 317.97248 690.76992zM752.2304 682.43456c-9.13408 5.67296-14.97088 14.2336-16.87552 24.73984-0.47104 2.58048-0.67584 5.18144-0.63488 7.7824-6.3488-5.18144-13.59872-9.76896-22.8352-9.76896-1.65888 0-4.73088 0.38912-6.36928 0.77824-17.34656 4.28032-47.14496 7.90528-65.06496 7.90528-96.0512 0-174.20288-60.2112-174.20288-134.26688 0-74.01472 78.1312-134.2464 174.20288-134.2464s174.20288 60.2112 174.20288 134.2464C814.65344 620.31872 791.90016 657.79712 752.2304 682.43456zM512.47104 281.86624c127.63136 0 234.65984 69.12 263.41376 161.792-37.00736-24.49408-84.13184-39.23968-135.43424-39.23968-118.64064 0-215.16288 78.60224-215.16288 175.2064 0 48.39424 24.22784 92.28288 63.32416 124.0064-25.64096-1.88416-56.19712-6.22592-76.0832-11.14112-17.28512-4.3008-30.59712 7.55712-42.41408 17.98144-4.89472 4.32128-9.5232 8.25344-14.09024 11.55072 4.05504-11.53024 6.3488-24.04352 4.1984-35.81952-2.33472-12.84096-9.48224-23.30624-20.66432-30.24896-61.58336-38.23616-98.36544-99.08224-98.36544-162.73408C241.21344 376.68864 362.9056 281.86624 512.47104 281.86624z"  /></svg>