<svg class="svg-icon" style="width: 1em;height: 1em;vertical-align: middle;fill: currentColor;overflow: hidden;" viewBox="0 0 1024 1024" version="1.1" xmlns="http://www.w3.org/2000/svg"><path d="M512 929.426286c11.154286 0 21.430857-1.28 33.005714-2.139429l24.868572 47.140572c4.699429 9.435429 14.134857 14.573714 25.691428 12.854857 10.715429-2.139429 18.432-9.856 19.712-21.430857l7.716572-51.858286c21.010286-5.558857 42.002286-13.714286 62.573714-22.710857l38.582857 34.724571c8.137143 7.716571 18.413714 9.417143 29.129143 3.419429 9.435429-5.138286 13.293714-15.433143 11.154286-26.569143l-10.715429-51.437714a393.691429 393.691429 0 0 0 50.998857-42.422858l48 20.150858c10.715429 4.278857 20.571429 2.139429 28.708572-7.716572 7.296-7.716571 8.137143-18.852571 2.139428-28.288l-27.849143-44.580571c12.854857-17.993143 23.149714-37.284571 33.005715-57.837715l52.297143 2.56c11.117714 0.420571 20.553143-5.577143 24.411428-16.274285 3.419429-10.733714 0-21.010286-8.996571-27.867429l-40.722286-32.566857c5.577143-20.571429 9.874286-42.861714 11.574857-66.011429l49.718857-15.414857c10.715429-3.858286 17.554286-12.013714 17.554286-23.588571 0-11.136-6.838857-19.273143-17.554286-23.131429l-49.737143-15.853714c-1.700571-23.149714-5.979429-44.580571-11.556571-65.572571l40.704-33.005715c9.014857-6.418286 12.434286-16.274286 9.014857-26.989714-3.858286-10.715429-13.293714-16.731429-24.429714-16.292571l-52.297143 2.139428c-9.837714-20.571429-20.114286-39.862857-32.987429-57.856l27.867429-44.562286c5.979429-9.014857 5.12-20.150857-2.157714-27.867428-8.137143-9.856-17.993143-12.434286-28.708572-7.716572l-48 19.291429a473.307429 473.307429 0 0 0-51.017143-42.002286l10.733715-50.998857c2.139429-11.574857-1.718857-21.851429-11.154286-27.008-10.715429-5.558857-20.992-4.699429-29.129143 3.858286l-38.582857 33.865143a495.634286 495.634286 0 0 0-62.573714-22.290286l-7.716572-51.858286c-1.28-11.154286-8.996571-19.273143-19.712-20.992-11.574857-1.718857-20.992 2.998857-25.709714 12.434286l-24.868571 47.140571c-11.556571-0.859429-21.851429-1.718857-32.987429-1.718857-11.574857 0-21.851429 0.859429-33.865143 1.718857l-24.411428-47.158857c-4.717714-9.417143-14.153143-14.134857-26.148572-12.434285-10.715429 1.737143-18.011429 9.874286-19.712 21.028571l-7.296 51.419429c-21.430857 6.418286-42.422857 13.714286-62.573714 22.710857l-38.564572-33.865143c-8.576-8.557714-18.852571-9.417143-29.147428-3.84-9.417143 5.12-13.275429 15.414857-11.154286 26.989714l10.733714 51.017143a439.661714 439.661714 0 0 0-51.437714 41.984l-47.561143-19.291429c-10.715429-4.717714-21.010286-2.139429-29.147428 7.716572a22.582857 22.582857 0 0 0-2.139429 27.428571L167.862857 275.017143c-12.854857 17.993143-23.149714 37.302857-33.005714 57.856l-52.717714-2.139429c-11.154286-0.420571-20.571429 5.577143-23.990858 16.274286-3.437714 10.733714-0.438857 20.589714 8.557715 27.008l41.142857 33.005714c-5.558857 20.992-10.276571 42.422857-11.556572 65.572572l-49.737142 15.853714c-11.117714 3.419429-17.133714 11.574857-17.133715 23.149714 0 11.556571 6.016 19.712 17.152 23.570286l49.718857 15.853714c1.28 22.710857 5.997714 44.982857 11.574858 65.572572L66.724571 649.142857c-9.014857 6.857143-12.013714 17.152-8.594285 27.849143 3.437714 10.715429 12.873143 16.713143 24.009143 16.292571l52.717714-2.56c9.874286 20.553143 20.150857 39.862857 32.566857 57.837715l-27.428571 44.580571c-6.418286 9.435429-5.558857 20.571429 1.718857 28.288 8.137143 9.856 18.432 11.995429 29.147428 7.716572l47.561143-20.150858c15.872 15.853714 33.444571 29.988571 51.437714 42.422858l-10.715428 51.437714c-2.139429 11.154286 1.718857 21.430857 11.154286 26.569143 10.697143 5.997714 20.992 4.278857 29.129142-3.419429l38.144-34.724571c20.571429 8.996571 41.563429 17.152 62.994286 22.710857l7.296 51.858286c1.700571 11.574857 8.996571 19.291429 19.712 21.430857 11.995429 1.718857 21.430857-3.419429 26.148572-12.854857l24.411428-47.140572c11.574857 0.859429 22.308571 2.139429 33.865143 2.139429zM619.574857 484.571429c-20.150857-53.997714-59.574857-83.565714-108.854857-83.565715-7.296 0-15.853714 0.859429-29.568 3.84l-123.008-209.993143C404.004571 172.141714 456.283429 159.707429 512 159.707429c186.861714 0 333.421714 141.860571 346.715429 324.864zM164.004571 512c0-119.149714 56.137143-224.146286 144.859429-287.561143l123.849143 211.273143c-23.149714 24.009143-33.846857 50.139429-33.846857 78.006857 0 26.989714 10.276571 51.858286 33.846857 76.708572l-126.848 207.433142C219.282286 733.988571 164.004571 630.290286 164.004571 512z m295.277715 1.28c0-29.129143 24.868571-51.858286 52.297143-51.858286 29.129143 0 53.138286 22.729143 53.138285 51.858286 0 28.708571-24.009143 52.297143-53.138285 52.297143-27.428571 0-52.297143-23.588571-52.297143-52.297143zM512 864.292571c-56.996571 0-110.134857-13.293714-156.854857-36.425142L481.133714 621.714286c13.293714 3.437714 22.308571 4.278857 29.586286 4.278857 49.700571 0 89.142857-30.427429 108.854857-85.705143H858.697143c-13.714286 182.125714-160.292571 324.004571-346.715429 324.004571z"  /></svg>