<svg viewBox="0 0 496 512" xmlns="http://www.w3.org/2000/svg"><path d="m248 8c-137 0-248 111-248 248s111 248 248 248 248-111 248-248-111-248-248-248zm0 448c-110.3 0-200-89.7-200-200s89.7-200 200-200 200 89.7 200 200-89.7 200-200 200zm105.6-151.4c-25.9 8.3-64.4 13.1-105.6 13.1s-79.6-4.8-105.6-13.1c-9.9-3.1-19.4 5.4-17.7 15.3 7.9 47.1 71.3 80 123.3 80s115.3-32.9 123.3-80c1.6-9.8-7.7-18.4-17.7-15.3zm-185.6-64.6c17.7 0 32-14.3 32-32s-14.3-32-32-32-32 14.3-32 32 14.3 32 32 32zm160 0c17.7 0 32-14.3 32-32s-14.3-32-32-32-32 14.3-32 32 14.3 32 32 32z"/></svg>