<svg width="50" height="50" viewBox="0 0 50 50" fill="none" xmlns="http://www.w3.org/2000/svg">
<rect width="50" height="50" rx="6" fill="#FF3B2F"/>
<path fill-rule="evenodd" clip-rule="evenodd" d="M42.6724 13.793C42.6724 10.2222 39.7777 7.32751 36.2069 7.32751C32.6361 7.32751 29.7414 10.2222 29.7414 13.793C29.7414 17.3638 32.6361 20.2585 36.2069 20.2585C39.7777 20.2585 42.6724 17.3638 42.6724 13.793ZM27.5862 11.6382H17.6724L17.3282 11.6466C13.6792 11.826 10.7758 14.8413 10.7758 18.5347V32.3278L10.7843 32.672C10.9636 36.321 13.979 39.2244 17.6724 39.2244H31.4655L31.8097 39.2159C35.4587 39.0366 38.362 36.0213 38.362 32.3278V22.414H36.6379V32.3278L36.6291 32.6317C36.4718 35.3469 34.2201 37.5002 31.4655 37.5002H17.6724L17.3685 37.4914C14.6533 37.3341 12.5 35.0824 12.5 32.3278V18.5347L12.5088 18.2308C12.6661 15.5156 14.9178 13.3623 17.6724 13.3623H27.5862V11.6382Z" fill="white"/>
</svg>
