<svg width="50" height="50" viewBox="0 0 50 50" fill="none" xmlns="http://www.w3.org/2000/svg">
<rect y="0.593628" width="50" height="49.1979" rx="6" fill="#FBB500"/>
<path fill-rule="evenodd" clip-rule="evenodd" d="M26.0209 9.92877C25.9408 9.44512 25.5142 9.07599 25 9.07599C24.4287 9.07599 23.9655 9.53171 23.9655 10.0939L23.9638 26.8347L21.0873 24.0032L20.9441 23.8854C20.5409 23.6106 19.9835 23.6499 19.6244 24.0032C19.2204 24.4007 19.2204 25.0452 19.6244 25.4427L24.2685 30.0124L24.4118 30.1301C24.8149 30.405 25.3724 30.3657 25.7315 30.0124L30.3756 25.4427L30.4953 25.3018C30.7746 24.905 30.7347 24.3566 30.3756 24.0032L30.2323 23.8854C29.8292 23.6106 29.2717 23.6499 28.9126 24.0032L26.0327 26.8347L26.0345 10.0939L26.0209 9.92877ZM20 16.4557C20 15.8935 19.5368 15.4378 18.9655 15.4378H15.0862L14.8351 15.4489C13.4292 15.5737 12.3276 16.7363 12.3276 18.1521V38.0858L12.3389 38.3328C12.4657 39.7162 13.6473 40.8001 15.0862 40.8001H34.9138L35.1649 40.7891C36.5707 40.6642 37.6724 39.5016 37.6724 38.0858V18.1521L37.6611 17.9051C37.5343 16.5218 36.3527 15.4378 34.9138 15.4378H31.0345L30.8667 15.4511C30.3751 15.53 30 15.9497 30 16.4557C30 17.0178 30.4631 17.4736 31.0345 17.4736H34.9138L35.0528 17.4873C35.367 17.5506 35.6034 17.8242 35.6034 18.1521V38.0858L35.5894 38.2225C35.5251 38.5318 35.2471 38.7644 34.9138 38.7644H15.0862L14.9472 38.7506C14.6329 38.6873 14.3965 38.4137 14.3965 38.0858V18.1521L14.4106 18.0154C14.4749 17.7062 14.7529 17.4736 15.0862 17.4736H18.9655L19.1333 17.4602C19.6248 17.3813 20 16.9616 20 16.4557Z" fill="white"/>
</svg>
