<svg width="50" height="50" viewBox="0 0 50 50" fill="none" xmlns="http://www.w3.org/2000/svg">
<rect y="0.791504" width="50" height="49.1979" rx="6" fill="#3396FD"/>
<path fill-rule="evenodd" clip-rule="evenodd" d="M17.2414 38.9623C15.3369 38.9623 13.7931 37.4432 13.7931 35.5693V25.3904C13.7931 23.5166 15.3369 21.9975 17.2414 21.9975V17.7563C17.2414 13.5401 20.715 10.1221 25 10.1221C29.285 10.1221 32.7586 13.5401 32.7586 17.7563V21.9975C34.663 21.9975 36.2069 23.5166 36.2069 25.3904V35.5693C36.2069 37.4432 34.663 38.9623 32.7586 38.9623H17.2414ZM25 13.5151C22.6195 13.5151 20.6897 15.4139 20.6897 17.7563V21.9975H29.3104V17.7563C29.3104 15.4139 27.3805 13.5151 25 13.5151Z" fill="white"/>
</svg>
