<svg width="50" height="50" viewBox="0 0 50 50" fill="none" xmlns="http://www.w3.org/2000/svg">
<rect y="0.197876" width="50" height="49.1979" rx="6" fill="#1FC434"/>
<path fill-rule="evenodd" clip-rule="evenodd" d="M25.7015 13.2285C25.8059 13.3723 25.8621 13.5447 25.8621 13.7215V38.4168C25.8621 38.8853 25.4761 39.265 25 39.265C24.8203 39.265 24.6451 39.2098 24.4989 39.107L13.7931 31.5827H10.3448C9.3926 31.5827 8.62067 30.8232 8.62067 29.8862V22.2521C8.62067 21.3151 9.3926 20.5556 10.3448 20.5556H13.7931L24.4989 13.0312C24.8863 12.759 25.4248 12.8472 25.7015 13.2285ZM36.6463 12.7337C36.9897 12.4092 37.5354 12.4201 37.8652 12.7581C41.1747 16.1496 42.931 20.5398 42.931 25.3536C42.931 29.9054 41.1239 34.2158 37.8742 37.6723C37.5508 38.0162 37.0054 38.037 36.6559 37.7189C36.3064 37.4008 36.2852 36.8641 36.6085 36.5202C39.5707 33.3697 41.2069 29.4669 41.2069 25.3536C41.2069 20.9733 39.6195 17.0053 36.6215 13.933C36.2917 13.5951 36.3028 13.0582 36.6463 12.7337ZM32.6802 16.1267C33.0236 15.8022 33.5693 15.8131 33.8991 16.151C36.3076 18.6192 37.5862 21.8153 37.5862 25.3157C37.5862 28.6296 36.271 31.7667 33.9086 34.2793C33.5853 34.6232 33.0399 34.6441 32.6904 34.3259C32.3409 34.0078 32.3197 33.4711 32.643 33.1273C34.7177 30.9206 35.862 28.1911 35.862 25.3157C35.862 22.2488 34.7523 19.4749 32.6554 17.326C32.3257 16.9881 32.3368 16.4511 32.6802 16.1267ZM29.2244 19.0567C29.5896 18.7562 30.1333 18.8038 30.4388 19.1631C31.8478 20.8206 32.5914 22.9543 32.5914 25.2825C32.5914 27.4895 31.8266 29.5835 30.448 31.2667C30.1492 31.6315 29.6065 31.6889 29.2358 31.3949C28.8651 31.101 28.8067 30.567 29.1055 30.2022C30.2393 28.8179 30.8672 27.0986 30.8672 25.2825C30.8672 23.342 30.2584 21.5952 29.1163 20.2516C28.8108 19.8923 28.8592 19.3573 29.2244 19.0567Z" fill="white"/>
</svg>
