<svg width="50" height="50" viewBox="0 0 50 50" fill="none" xmlns="http://www.w3.org/2000/svg">
<rect width="50" height="50" rx="6" fill="#397AFE"/>
<path fill-rule="evenodd" clip-rule="evenodd" d="M24.7414 9.4826C29.5025 9.4826 33.3621 13.3422 33.3621 18.1033C33.3621 21.5173 31.3775 24.4678 28.4991 25.8641L28.6914 25.8626V39.8886C28.6914 40.0715 28.6333 40.2484 28.5273 40.3946L28.4389 40.4981L26.4696 42.4675C25.8488 43.0883 24.8722 43.1368 24.1958 42.6126L24.0333 42.4696L21.9113 40.3546C21.6154 40.052 21.5873 39.5872 21.8237 39.2538L21.9248 39.1355L22.9757 38.1075C23.278 37.8115 23.3165 37.3475 23.0877 37.0088L22.9894 36.8883L21.3168 35.175C21.0405 34.8545 21.0416 34.3888 21.2984 34.0709L21.4067 33.9591L22.9357 32.6376C23.2349 32.3384 23.2682 31.8738 23.0354 31.5378L22.9357 31.4185L21.5531 30.0359C21.4238 29.9066 21.3398 29.7404 21.3114 29.562L21.3006 29.4263L21.3008 26.01C18.252 24.6815 16.1207 21.6413 16.1207 18.1033C16.1207 13.3422 19.9803 9.4826 24.7414 9.4826ZM24.7845 12.9309C23.4752 12.9309 22.4138 13.9923 22.4138 15.3016C22.4138 16.6109 23.4752 17.6723 24.7845 17.6723C26.0938 17.6723 27.1552 16.6109 27.1552 15.3016C27.1552 13.9923 26.0938 12.9309 24.7845 12.9309Z" fill="white"/>
</svg>
