<svg height="56" viewBox="0 0 56 56" width="56" xmlns="http://www.w3.org/2000/svg"><path d="m27.7071 37.6563 3.1172-3.1641c-3.0937-.2344-5.1093-1.1719-6.6328-2.6954-4.1016-4.1015-4.0781-9.914-.0234-13.9687l7.6406-7.6406c4.1016-4.0781 9.8672-4.1016 13.9453 0 4.1251 4.1015 4.0781 9.8906.0235 13.9453l-4.5938 4.5937c.6562 1.5.7969 3.2344.5625 4.7578l6.8672-6.8671c5.6251-5.625 5.6717-13.5704-.0235-19.2656-5.6952-5.6953-13.6406-5.6485-19.2656-.0235l-7.9922 8.0156c-5.625 5.625-5.6718 13.5938.0235 19.2657 1.4765 1.4765 3.3515 2.5312 6.3515 3.0469zm.586-19.3126-3.1172 3.1641c3.0937.2578 5.1093 1.1719 6.6328 2.6953 4.1016 4.1016 4.0781 9.9141.0234 13.9688l-7.664 7.6406c-4.0782 4.0781-9.8672 4.1016-13.9453.0234-4.1016-4.125-4.0781-9.8906 0-13.9687l4.5937-4.5938c-.6562-1.4766-.8203-3.2344-.5859-4.7578l-6.8672 6.8672c-5.6016 5.625-5.6485 13.5937.0234 19.2656 5.6953 5.6953 13.6641 5.6484 19.2657.0469l8.0156-8.0391c5.625-5.625 5.6718-13.5937-.0234-19.2656-1.4766-1.4765-3.3516-2.5312-6.3516-3.0469z"/></svg>