<svg width="30" height="45" viewBox="0 0 30 45" fill="none" xmlns="http://www.w3.org/2000/svg">
<path fill-rule="evenodd" clip-rule="evenodd" d="M15 0C19.7489 0 23.5987 3.84978 23.5987 8.59873V21.9745C23.5987 26.7235 19.7489 30.5733 15 30.5733C10.251 30.5733 6.40122 26.7235 6.40122 21.9745V8.59873C6.40122 3.84978 10.251 0 15 0ZM1.1465 19.7361C1.71637 19.7361 2.18913 20.1518 2.27799 20.6966L2.29299 20.8825V21.1347C2.29299 28.2813 7.9863 34.0673 15 34.0673C21.8645 34.0673 27.4641 28.5248 27.6993 21.589L27.707 21.1347V20.9024C27.707 20.2692 28.2203 19.7559 28.8535 19.7559C29.4234 19.7559 29.8961 20.1717 29.985 20.7165L30 20.9024L29.9929 21.6087C29.7579 29.4062 23.7451 35.7338 16.1462 36.3165L16.1465 42.9939C16.1465 43.6271 15.6332 44.1404 15 44.1404C14.4301 44.1404 13.9574 43.7247 13.8685 43.1799L13.8535 42.9939L13.8544 36.3165C6.26004 35.7346 0.249742 29.4144 0.00758628 21.6235L0 20.8825C0 20.2494 0.513304 19.7361 1.1465 19.7361ZM8.69432 8.5991C8.69432 5.11654 11.5175 2.29337 15.0001 2.29337C18.4826 2.29337 21.3058 5.11654 21.3058 8.5991V21.9749C21.3058 25.4575 18.4826 28.2806 15.0001 28.2806C11.5175 28.2806 8.69432 25.4575 8.69432 21.9749V8.5991Z" fill="#434141"/>
</svg>
