<svg enable-background="new 0 0 24 24" viewBox="0 0 24 24" xmlns="http://www.w3.org/2000/svg"><path d="m9 7c0-1.7 1.3-3 3-3s3 1.3 3 3v2h2v-2c0-2.8-2.2-5-5-5s-5 2.2-5 5v2h2zm4.5 7.5c0-.8-.7-1.5-1.5-1.5s-1.5.7-1.5 1.5c0 .4.2.8.5 1.1v1.4c0 .6.4 1 1 1 .6 0 1-.4 1-1v-1.4c.3-.3.5-.7.5-1.1z"/><path d="m17 9h-10c-1.7 0-3 1.3-3 3v7c0 1.7 1.3 3 3 3h10c1.7 0 3-1.3 3-3v-7c0-1.7-1.3-3-3-3zm-4 6.6v1.4c0 .6-.4 1-1 1-.6 0-1-.4-1-1v-1.4c-.3-.3-.5-.7-.5-1.1 0-.8.7-1.5 1.5-1.5s1.5.7 1.5 1.5c0 .4-.2.8-.5 1.1z"/></svg>