<svg height="56" viewBox="0 0 56 56" width="56" xmlns="http://www.w3.org/2000/svg"><path d="m23.957 41.7695c3.8906 0 7.5234-1.2656 10.4766-3.375l11.1093 11.1094c.5156.5156 1.1953.7735 1.8985.7735 1.5234 0 2.625-1.1719 2.625-2.6719 0-.7032-.2342-1.3594-.7502-1.875l-11.0389-11.0626c2.3203-3.0468 3.7031-6.8203 3.7031-10.9218 0-9.9141-8.1094-18.0235-18.0234-18.0235-9.9375 0-18.0234 8.1094-18.0234 18.0235 0 9.914 8.0859 18.0234 18.0234 18.0234zm0-3.8906c-7.7578 0-14.1328-6.3984-14.1328-14.1328s6.375-14.1328 14.1328-14.1328c7.7344 0 14.1328 6.3984 14.1328 14.1328s-6.3984 14.1328-14.1328 14.1328z"/></svg>