<svg height="56" viewBox="0 0 56 56" width="56" xmlns="http://www.w3.org/2000/svg"><path d="m48.7772 9.9766 1.6877-1.7344c.8203-.8203.8203-1.9688.0231-2.7422l-.5391-.5625c-.7262-.7266-1.8749-.6328-2.6481.1172l-1.7111 1.6875zm-26.9765 24.375 4.5703-1.9922 20.6955-20.6719-3.2111-3.1641-20.6719 20.6719-2.1094 4.4063c-.1875.3984.2813.9375.7266.75zm-9.7266 17.4375h27.5156c4.2188 0 6.6563-2.4375 6.6563-7.2657v-26.0859l-3.7734 3.7734v22.1251c0 2.4374-1.3125 3.6796-2.9297 3.6796h-27.3985c-2.3437 0-3.6562-1.2422-3.6562-3.6796v-26.6016c0-2.4375 1.3125-3.7032 3.6562-3.7032h20.2735l3.7734-3.7734h-24.1172c-4.8749 0-7.3593 2.4375-7.3593 7.2656v27c0 4.8516 2.4844 7.2657 7.3593 7.2657z"/></svg>