<svg width="50" height="50" viewBox="0 0 50 50" fill="none" xmlns="http://www.w3.org/2000/svg">
<path fill-rule="evenodd" clip-rule="evenodd" d="M42.8933 7.65178C38.2193 2.7917 31.8269 0 24.9977 0C18.1709 0 11.7784 2.7917 7.10442 7.65178C6.64522 8.12927 6.65441 8.8941 7.12496 9.36007C7.59551 9.82605 8.34922 9.81672 8.80842 9.33923C13.0388 4.94039 18.8191 2.41606 24.9977 2.41606L25.6849 2.42642C31.6047 2.60562 37.1156 5.10331 41.1893 9.33923C41.6485 9.81672 42.4023 9.82605 42.8728 9.36007C43.3434 8.8941 43.3525 8.12927 42.8933 7.65178ZM42.857 25.3686C42.857 15.3609 34.8621 7.24814 24.9999 7.24814C15.1377 7.24814 7.14274 15.3609 7.14274 25.3686C7.14274 35.3763 15.1377 43.4891 24.9999 43.4891C34.8621 43.4891 42.857 35.3763 42.857 25.3686ZM0.959376 18.3857C1.14001 17.7442 1.79893 17.3727 2.43111 17.556C3.06329 17.7393 3.42934 18.408 3.24871 19.0495C2.67511 21.0865 2.38095 23.2071 2.38095 25.3687C2.38095 35.8607 9.37821 44.9416 19.2357 47.5696C19.8716 47.7391 20.2516 48.3996 20.0846 49.0449C19.9175 49.6902 19.2666 50.0759 18.6307 49.9063C7.73302 47.001 0 36.9653 0 25.3687C0 22.982 0.32515 20.6381 0.959376 18.3857ZM47.5978 17.6425C48.2307 17.4616 48.8882 17.8356 49.0665 18.4778C49.6838 20.7021 50.0001 23.0147 50.0001 25.3687C50.0001 37.048 42.1575 47.1361 31.1537 49.9628C30.5164 50.1265 29.8689 49.735 29.7075 49.0882C29.5462 48.4414 29.932 47.7844 30.5694 47.6206C40.5227 45.0637 47.6191 35.9355 47.6191 25.3687C47.6191 23.2366 47.333 21.1444 46.7747 19.1328C46.5964 18.4906 46.965 17.8234 47.5978 17.6425ZM25.0001 9.66433C16.4529 9.66433 9.52393 16.6954 9.52393 25.3687C9.52393 34.0421 16.4529 41.0732 25.0001 41.0732C33.5474 41.0732 40.4763 34.0421 40.4763 25.3687C40.4763 16.6954 33.5474 9.66433 25.0001 9.66433Z" fill="#3A3838"/>
</svg>
