<svg width="35" height="35" viewBox="0 0 35 35" fill="none" xmlns="http://www.w3.org/2000/svg">
<path fill-rule="evenodd" clip-rule="evenodd" d="M23.3333 0C29.7767 0 35 5.22335 35 11.6667C35 13.635 34.857 15.7445 34.571 17.9953C33.7279 22.1731 32.2128 25.2894 29.1678 28.3344C26.313 31.1891 23.1721 32.9577 18.8334 34.3654C16.4486 35.0787 11.6667 35 11.6667 35C5.22334 35 0 29.7767 0 23.3333V11.6667C0 5.22335 5.22334 0 11.6667 0H23.3333ZM23.3333 2.33335H11.6667C6.51201 2.33335 2.33333 6.51203 2.33333 11.6667V23.3334C2.33333 28.488 6.51201 32.6667 11.6667 32.6667L15.2839 32.6702C16.7613 32.5876 17.5 31.8969 17.5 30.5981L17.5 27.4021C17.5 22.0541 21.8194 17.7102 27.1673 17.68L28.448 17.6628L29.2493 17.6377C29.9824 17.6075 30.5109 17.5616 30.8346 17.5C31.9862 17.2811 32.5979 16.3971 32.6699 14.8479L32.6667 11.6667C32.6667 6.51203 28.488 2.33335 23.3333 2.33335ZM31.2704 19.7923C31.5267 19.7435 31.7699 19.6784 32.0168 19.5926C31.0912 22.2499 29.5959 24.6064 27.5178 26.6845C25.389 28.8133 22.7911 30.506 19.7075 31.7632C19.7902 31.4024 19.8333 31.0136 19.8333 30.5981L19.8333 27.4021C19.8333 23.3376 23.116 20.0363 27.1804 20.0133L28.1299 20.003C29.617 19.9782 30.6336 19.9133 31.2704 19.7923Z" fill="#3C3B3B"/>
</svg>
